<svg xmlns="http://www.w3.org/2000/svg" width="301.441" height="247.647" viewBox="0 0 301.441 247.647"><defs><style>.cls-1{fill:#88bee7;}</style></defs><title>logo</title><g id="Layer_2" data-name="Layer 2"><g id="Layer_1-2" data-name="Layer 1"><path class="cls-1" d="M68.722,80.385h67.457v55.792q0,47.619-22.545,75.756-28.68,35.715-79,35.714-15.328,0-34.632-6.5V177.483q16.956,7.933,28.678,7.936,40.044,0,40.044-58.982ZM100.466,4.3a33.034,33.034,0,0,1,23.719,9.649Q134.2,23.6,134.2,36.764q0,14.067-9.47,23.087t-24.26,9.018q-14.79,0-24.259-9.018t-9.47-23.087q0-13.166,10.011-22.817A33.031,33.031,0,0,1,100.466,4.3Z"/><path class="cls-1" d="M150.65,0h10.28q62.769,0,98.3,28.5,42.21,34.089,42.21,92.529,0,55.917-36.074,91.266t-92.892,35.353q-6.677,0-21.825-.72V174.6h11.724q64.031,0,64.03-53.569,0-50.324-62.949-50.324l-12.805.2"/></g></g></svg>